<svg xmlns="http://www.w3.org/2000/svg">
  <symbol id="icon-search" viewBox="0 0 24 24">
    <path fill="currentColor" d="M10.5 4a6.5 6.5 0 1 0 4.02 11.6l4.44 4.44 1.41-1.41-4.44-4.44A6.5 6.5 0 0 0 10.5 4Zm0 2a4.5 4.5 0 1 1 0 9 4.5 4.5 0 0 1 0-9Z"/>
  </symbol>

  <symbol id="icon-github" viewBox="0 -2 16 16">
    <path fill="currentColor" d="M8 0C3.58 0 0 3.58 0 8c0 3.54 2.29 6.53 5.47 7.59.4.07.55-.17.55-.38 0-.19-.01-.82-.01-1.49-2.01.37-2.53-.49-2.69-.94-.09-.23-.48-.94-.82-1.13-.28-.15-.68-.52-.01-.53.63-.01 1.08.58 1.23.82.72 1.21 1.87.87 2.33.66.07-.52.28-.87.51-1.07-1.78-.2-3.64-.89-3.64-3.95 0-.87.31-1.59.82-2.15-.08-.2-.36-1.02.08-2.12 0 0 .67-.21 2.2.82.64-.18 1.32-.27 2-.27.68 0 1.36.09 2 .27 1.53-1.04 2.2-.82 2.2-.82.44 1.1.16 1.92.08 2.12.51.56.82 1.27.82 2.15 0 3.07-1.87 3.75-3.65 3.95.29.25.54.73.54 1.48 0 1.07-.01 1.93-.01 2.2 0 .21.15.46.55.38A8.012 8.012 0 0 0 16 8c0-4.42-3.58-8-8-8z"/>
  </symbol>

  <symbol id="icon-date" viewBox="0 0 24 24">
    <path fill="none" stroke="currentColor" stroke-width="1.8" stroke-linecap="round" stroke-linejoin="round" d="M7 2v2M17 2v2M5 5h14a2 2 0 0 1 2 2v13a2 2 0 0 1-2 2H5a2 2 0 0 1-2-2V7a2 2 0 0 1 2-2Zm-2 6h18"/>
  </symbol>

  <symbol id="icon-time" viewBox="0 0 24 24">
    <circle cx="12" cy="12" r="8" fill="none" stroke="currentColor" stroke-width="1.8"/>
    <path fill="none" stroke="currentColor" stroke-width="1.8" stroke-linecap="round" stroke-linejoin="round" d="M12 8v4l3 2"/>
  </symbol>

  <symbol id="icon-category" viewBox="0 0 24 24">
    <rect x="4" y="4" width="6" height="6" rx="1" fill="none" stroke="currentColor" stroke-width="1.7"/>
    <rect x="14" y="4" width="6" height="6" rx="1" fill="none" stroke="currentColor" stroke-width="1.7"/>
    <rect x="4" y="14" width="6" height="6" rx="1" fill="none" stroke="currentColor" stroke-width="1.7"/>
    <rect x="14" y="14" width="6" height="6" rx="1" fill="none" stroke="currentColor" stroke-width="1.7"/>
  </symbol>

  <symbol id="icon-tag" viewBox="0 0 24 24">
    <path fill="none" stroke="currentColor" stroke-width="1.7" stroke-linecap="round" stroke-linejoin="round" d="M3.5 12 12 3.5h5.8l2.7 2.7v5.8L12 21.5 3.5 13V12Z"/>
    <circle cx="16.2" cy="7.8" r="1.2" fill="currentColor"/>
  </symbol>

  <symbol id="icon-note" viewBox="0 0 24 24">
    <path fill="currentColor" d="M3 17.25V21h3.75L17.81 9.94l-3.75-3.75L3 17.25zM20.71 7.04c.39-.39.39-1.02 0-1.41l-2.34-2.34c-.39-.39-1.02-.39-1.41 0l-1.83 1.83 3.75 3.75 1.83-1.83z"/>
  </symbol>

  <symbol id="icon-tip" viewBox="0 0 24 24">
    <path fill="currentColor" d="M12 2C6.48 2 2 6.48 2 12s4.48 10 10 10 10-4.48 10-10S17.52 2 12 2zm-2 15l-5-5 1.41-1.41L10 14.17l7.59-7.59L19 8l-9 9z"/>
  </symbol>

  <symbol id="icon-warn" viewBox="0 0 24 24">
    <path fill="currentColor" d="M1 21h22L12 2 1 21zm12-3h-2v-2h2v2zm0-4h-2v-4h2v4z"/>
  </symbol>

  <symbol id="icon-error" viewBox="0 0 24 24">
    <path fill="currentColor" d="M12 2C6.47 2 2 6.47 2 12s4.47 10 10 10 10-4.47 10-10S17.53 2 12 2zm5 13.59L15.59 17 12 13.41 8.41 17 7 15.59 10.59 12 7 8.41 8.41 7 12 10.59 15.59 7 17 8.41 13.41 12 17 15.59z"/>
  </symbol>

  <symbol id="icon-chevron-down" viewBox="0 0 24 24">
    <path fill="none" stroke="currentColor" stroke-width="2" stroke-linecap="round" stroke-linejoin="round" d="M6 9l6 6 6-6"/>
  </symbol>

  <symbol id="icon-list" viewBox="0 0 24 24">
    <rect x="4" y="5" width="4" height="4" rx="1" fill="currentColor"/>
    <rect x="10" y="5" width="10" height="4" rx="1" fill="currentColor"/>
    <rect x="4" y="10" width="4" height="4" rx="1" fill="currentColor"/>
    <rect x="10" y="10" width="10" height="4" rx="1" fill="currentColor"/>
    <rect x="4" y="15" width="4" height="4" rx="1" fill="currentColor"/>
    <rect x="10" y="15" width="10" height="4" rx="1" fill="currentColor"/>
  </symbol>

  <symbol id="icon-chevron-up" viewBox="0 0 24 24">
      <polyline points="18 15 12 9 6 15" stroke="currentColor" stroke-width="2.5" fill="none" stroke-linecap="round" stroke-linejoin="round"></polyline>
  </symbol>

  <symbol id="icon-eye" viewBox="0 0 24 24">
    <path d="M1 12s4-8 11-8 11 8 11 8-4 8-11 8-11-8-11-8z" fill="none" stroke="currentColor" stroke-width="2" stroke-linecap="round" stroke-linejoin="round"/>
    <circle cx="12" cy="12" r="3" fill="none" stroke="currentColor" stroke-width="2"/>
  </symbol>
</svg>
